{"title":"Bodinayakanur Ganesan(2011) Tamil 1CD TC Rip XviD MP3-=MTR=-","uid":6576309,"size":742969558,"categoryP":"video","categoryS":"movies","magnet":"?xt=urn:btih:a508d0dad6727ceba10955515e52b8f0d332064f&amp;dn=Bodinayakanur+Ganesan%282011%29+Tamil+1CD+TC+Rip+XviD+MP3-%3DMTR%3D-&amp;tr=udp%3A%2F%2Ftracker.openbittorrent.com%3A80&amp;tr=udp%3A%2F%2Fopen.demonii.com%3A1337&amp;tr=udp%3A%2F%2Ftracker.coppersurfer.tk%3A6969&amp;tr=udp%3A%2F%2Fexodus.desync.com%3A6969","seeders":0,"leechers":1,"uploader":"HDvideos","files":-1,"time":1312208750,"description":"Bodinayakanur Ganesan(2011) Tamil 1CD TC Rip XviD MP3-=MTR=-\n\nCheck out MY latest Uploads:\n &lt;a href=&quot;\nhttp://thepiratebay.se/user/HDvideos/0/7&quot; rel=&quot;nofollow&quot; target=&quot;_NEW&quot;&gt;\nhttp://thepiratebay.se/user/HDvideos/0/7&lt;/a&gt;\n\nStay updated with us....\n\nSeed after downloading....\n\nEnjoY with HDvideos..\n\nTeam Mastitorrents\n\nSay thanks if u like my posts\n\nGive ur valuable feedbacks\n\nQuality Uploads from HDvideos\n\n-=MT=-Uploader-=HDvideos=-\n\nRecommended Player:VLC Player\n\nVideo\nID                               : 0\nFormat                           : MPEG-4 Visual\nFormat profile                   : Advanced Simple@L5\nFormat settings, BVOP            : 2\nFormat settings, QPel            : No\nFormat settings, GMC             : No warppoints\nFormat settings, Matrix          : Default (H.263)\nCodec ID                         : XVID\nCodec ID/Hint                    : XviD\nDuration                         : 2h 14mn\nBit rate                         : 650 Kbps\nWidth                            : 608 pixels\nHeight                           : 256 pixels\nDisplay aspect ratio             : 2.35:1\nFrame rate                       : 23.976 fps\nColor space                      : YUV\nChroma subsampling               : 4:2:0\nBit depth                        : 8 bits\nScan type                        : Progressive\nCompression mode                 : Lossy\nBits/(Pixel*Frame)               : 0.174\nStream size                      : 626 MiB (88%)\nWriting library                  : XviD 1.2.1 (UTC 2008-12-04)\n\nAudio\nID                               : 1\nFormat                           : MPEG Audio\nFormat version                   : Version 1\nFormat profile                   : Layer 3\nCodec ID                         : 55\nCodec ID/Hint                    : MP3\nDuration                         : 2h 14mn\nBit rate mode                    : Variable\nBit rate                         : 72.8 Kbps\nMinimum bit rate                 : 32.0 Kbps\nChannel(s)                       : 1 channel\nSampling rate                    : 48.0 KHz\nCompression mode                 : Lossy\nStream size                      : 70.2 MiB (10%)\nAlignment                        : Aligned on interleaves\nInterleave, duration             : 24 ms (0.58 video frame)\nInterleave, preload duration     : 181 ms\nTitle                            : bodi Tc0 L2 2ch 48 128 DELAY 0ms\nWriting library                  : LAME3.98r","torrent":{"xt":"urn:btih:a508d0dad6727ceba10955515e52b8f0d332064f","amp;dn":"Bodinayakanur+Ganesan%282011%29+Tamil+1CD+TC+Rip+XviD+MP3-%3DMTR%3D-","amp;tr":["udp%3A%2F%2Ftracker.openbittorrent.com%3A80","udp%3A%2F%2Fopen.demonii.com%3A1337","udp%3A%2F%2Ftracker.coppersurfer.tk%3A6969","udp%3A%2F%2Fexodus.desync.com%3A6969"],"infoHash":"a508d0dad6727ceba10955515e52b8f0d332064f","infoHashBuffer":{"type":"Buffer","data":[165,8,208,218,214,114,124,235,161,9,85,81,94,82,184,240,211,50,6,79]},"announce":[],"urlList":[]}}